<?xml version="1.0" encoding="utf-8"?>
<!-- Generator: Adobe Illustrator 24.1.0, SVG Export Plug-In . SVG Version: 6.00 Build 0)  -->
<svg version="1.1" id="bg" xmlns="http://www.w3.org/2000/svg" xmlns:xlink="http://www.w3.org/1999/xlink" x="0px" y="0px"
	 viewBox="0 0 300 100" style="enable-background:new 0 0 300 100;" xml:space="preserve">
<style type="text/css">
	.st0{fill:#3A43AF;}
	.st1{fill:#344184;stroke:#364191;stroke-width:0.5;stroke-miterlimit:10;}
	.st2{fill:#344184;stroke:#364191;stroke-width:3;stroke-miterlimit:10;}
	.st3{fill:#2A317A;stroke:#2A317A;stroke-width:0.5;stroke-miterlimit:10;}
</style>
<g id="_x3C_background_x3E_">
	<rect x="-0.5" y="0.5" class="st0" width="301" height="99"/>
	<path d="M300,1v98H0V1H300 M301,0H-1v100h302V0L301,0z"/>
</g>
<path id="_x3C_Wave2_x3E_" class="st1" d="M348,73.25c-19.64-6.29-28.88-5.24-33.68-2.91c-1.67,0.81-4.25,2.47-9.18,4.37
	c-4.26,1.64-8.79,3.38-13.27,3.64c-11.57,0.67-14.98-9.01-25.51-8.74c-9.11,0.23-9.97,7.56-19.39,8.01
	c-10.91,0.52-15.2-9.05-25.51-8.01c-7.5,0.76-7.81,6.09-15.31,6.56c-8.83,0.55-11.62-6.64-21.43-6.56
	c-7.77,0.07-8.32,4.61-16.33,5.1c-11.41,0.7-15.42-8.2-25.51-7.28c-9.16,0.83-10.11,8.55-18.37,8.74
	c-9.01,0.21-11.18-8.88-21.43-9.47c-9.57-0.55-11.87,7.14-22.45,7.28c-11.71,0.16-15.63-9.15-25.51-8.01
	c-8.62,1-9.46,8.53-17.35,8.74c-7.7,0.2-10.22-6.88-19.39-8.01C11.03,65.79,3.97,69.28-1,72.52V90h339.82h6.12H348"/>
<g id="_x3C_Buoy_x3E_">
	<path class="st1" d="M272.08,76.5h-41.16c-2.43,0-4.42-1.99-4.42-4.42v0c0-2.43,1.99-4.42,4.42-4.42h41.16
		c2.43,0,4.42,1.99,4.42,4.42v0C276.5,74.51,274.51,76.5,272.08,76.5z"/>
	<path class="st1" d="M254.08,35.84h-6.16c-2.43,0-4.42-1.99-4.42-4.42v0c0-2.43,1.99-4.42,4.42-4.42h6.16
		c2.43,0,4.42,1.99,4.42,4.42v0C258.5,33.85,256.51,35.84,254.08,35.84z"/>
	<line class="st2" x1="246.5" y1="31.42" x2="232.5" y2="72.08"/>
	<line class="st2" x1="255.91" y1="31.06" x2="269.91" y2="71.72"/>
	<line class="st2" x1="250.5" y1="31.42" x2="251.5" y2="72.08"/>
</g>
<path id="_x3C_Wave1_x3E_" class="st3" d="M-31,78.46c19.27-9.03,28.34-7.52,33.05-4.18c1.64,1.16,4.17,3.54,9.01,6.27
	c4.18,2.35,8.62,4.85,13.02,5.23c11.35,0.96,14.7-12.92,25.04-12.54c8.94,0.33,9.78,10.86,19.03,11.5
	c10.7,0.74,14.92-12.99,25.04-11.5c7.36,1.09,7.66,8.74,15.02,9.41c8.67,0.79,11.4-9.54,21.03-9.41c7.63,0.1,8.16,6.62,16.02,7.32
	c11.2,1,15.13-11.77,25.04-10.45c8.98,1.2,9.92,12.26,18.03,12.54c8.84,0.31,10.97-12.74,21.03-13.59
	c9.39-0.79,11.65,10.24,22.03,10.45c11.49,0.23,15.34-13.14,25.04-11.5c8.46,1.43,9.28,12.24,17.02,12.54
	c7.55,0.29,10.03-9.88,19.03-11.5c7.22-1.3,14.15,3.71,19.03,8.36v25.09H-21.99H-28h-3"/>
</svg>
