<svg xmlns="http://www.w3.org/2000/svg" xmlns:xlink="http://www.w3.org/1999/xlink" version="1.1" x="0px" y="0px" viewBox="0 0 100 125" style="enable-background:new 0 0 100 100;" xml:space="preserve"><path fill="black" d="M84.3,11.8h-7.6l-2-2.9c-0.2-0.2-0.5-0.3-0.7-0.1c-0.2,0.2-0.3,0.5-0.1,0.7l1.6,2.4h-0.7c-0.2-0.9-1-1.5-1.9-1.5h-6.8v-1  c0-0.3-0.2-0.5-0.5-0.5S65.1,9,65.1,9.3v1h-6.7c-0.9,0-1.7,0.7-1.9,1.5h-0.7l1.6-2.3c0.2-0.2,0.1-0.5-0.1-0.7  c-0.2-0.2-0.5-0.1-0.7,0.1l-2,2.9H44.5l-2-2.8c-0.2-0.2-0.5-0.3-0.7-0.1s-0.3,0.5-0.1,0.7l1.6,2.2h-0.9c-0.2-0.9-1-1.5-1.9-1.5H34  V9.4c0-0.3-0.2-0.5-0.5-0.5S33,9.1,33,9.4v0.9h-6.5c-0.9,0-1.7,0.7-1.9,1.5h-0.8l1.5-2.2c0.2-0.2,0.1-0.5-0.1-0.7  c-0.2-0.2-0.5-0.1-0.7,0.1l-1.9,2.8h-6.8c-0.3,0-0.5,0.2-0.5,0.5v14.3v64.2c0,0.3,0.2,0.5,0.5,0.5h68.6c0.3,0,0.5-0.2,0.5-0.5V26.6  V12.3C84.8,12,84.6,11.8,84.3,11.8z M72.9,11.3c0.4,0,0.7,0.2,0.8,0.5h-7.6v-0.5H72.9z M58.4,11.3h6.7v0.5h-7.6  C57.7,11.5,58,11.3,58.4,11.3z M40.5,11.3c0.4,0,0.7,0.2,0.8,0.5H34v-0.5H40.5z M26.4,11.3H33v0.5h-7.3  C25.8,11.5,26.1,11.3,26.4,11.3z M16.2,12.8H25h16.8H57h17.4h9.5v13.3H16.2V12.8z M16.2,90.3V27.1h67.6v63.2H16.2z"/><path fill="black" d="M31.2,40.5h37.6c0.3,0,0.5-0.2,0.5-0.5v-2.7c0-0.3-0.2-0.5-0.5-0.5H31.2c-0.3,0-0.5,0.2-0.5,0.5V40  C30.7,40.3,30.9,40.5,31.2,40.5z M31.7,37.8h36.6v1.7H31.7V37.8z"/><path fill="black" d="M39.3,15.8h-5.1c-0.3,0-0.5,0.2-0.5,0.5v2.1c0,0.3,0.2,0.5,0.5,0.5h5.1c0.3,0,0.5-0.2,0.5-0.5v-2.1  C39.8,16,39.6,15.8,39.3,15.8z M38.8,17.9h-4.1v-1.1h4.1V17.9z"/><path fill="black" d="M39.3,19.9h-5.1c-0.3,0-0.5,0.2-0.5,0.5v2.1c0,0.3,0.2,0.5,0.5,0.5h5.1c0.3,0,0.5-0.2,0.5-0.5v-2.1  C39.8,20.2,39.6,19.9,39.3,19.9z M38.8,22h-4.1v-1.1h4.1V22z"/><path fill="black" d="M46.6,15.9h-5.1c-0.3,0-0.5,0.2-0.5,0.5v2.1c0,0.3,0.2,0.5,0.5,0.5h5.1c0.3,0,0.5-0.2,0.5-0.5v-2.1  C47.1,16.1,46.8,15.9,46.6,15.9z M46.1,17.9H42v-1.1h4.1V17.9z"/><path fill="black" d="M46.6,20h-5.1c-0.3,0-0.5,0.2-0.5,0.5v2.1c0,0.3,0.2,0.5,0.5,0.5h5.1c0.3,0,0.5-0.2,0.5-0.5v-2.1C47.1,20.2,46.8,20,46.6,20  z M46.1,22.1H42V21h4.1V22.1z"/><path fill="black" d="M53.8,15.9h-5.1c-0.3,0-0.5,0.2-0.5,0.5v2.1c0,0.3,0.2,0.5,0.5,0.5h5.1c0.3,0,0.5-0.2,0.5-0.5v-2.1  C54.3,16.1,54.1,15.9,53.8,15.9z M53.3,17.9h-4.1v-1.1h4.1V17.9z"/><path fill="black" d="M53.8,20h-5.1c-0.3,0-0.5,0.2-0.5,0.5v2.1c0,0.3,0.2,0.5,0.5,0.5h5.1c0.3,0,0.5-0.2,0.5-0.5v-2.1C54.3,20.2,54.1,20,53.8,20  z M53.3,22.1h-4.1V21h4.1V22.1z"/><path fill="black" d="M71.5,15.8h-9.3c-1.8,0-3.3,1.5-3.3,3.3v0.6c0,1.8,1.5,3.3,3.3,3.3h9.3c1.8,0,3.3-1.5,3.3-3.3v-0.6  C74.8,17.3,73.3,15.8,71.5,15.8z M73.8,19.8c0,1.3-1,2.3-2.3,2.3h-9.3c-1.3,0-2.3-1-2.3-2.3v-0.6c0-1.3,1-2.3,2.3-2.3h9.3  c1.3,0,2.3,1,2.3,2.3V19.8z"/><path fill="black" d="M74.3,31.7H25.7c-0.3,0-0.5,0.2-0.5,0.5v49.2c0,0.3,0.2,0.5,0.5,0.5h48.7c0.3,0,0.5-0.2,0.5-0.5V32.2  C74.8,31.9,74.6,31.7,74.3,31.7z M73.8,80.9H26.2V32.7h47.7V80.9z"/><path fill="black" d="M28.1,15.9c-2,0-3.6,1.6-3.6,3.6s1.6,3.6,3.6,3.6s3.6-1.6,3.6-3.6S30.1,15.9,28.1,15.9z M28.1,22c-1.4,0-2.6-1.2-2.6-2.6  s1.2-2.6,2.6-2.6s2.6,1.2,2.6,2.6S29.5,22,28.1,22z"/></svg>